<svg xmlns="http://www.w3.org/2000/svg" viewBox="0 0 1200 630" role="img" aria-label="Abdullah Afzal — Shopify, SEO, CRO and AI automation">
  <defs>
    <linearGradient id="og-bg" x1="0" y1="0" x2="1" y2="1"><stop offset="0" stop-color="#16161C"/><stop offset="1" stop-color="#0B0B0E"/></linearGradient>
    <linearGradient id="og-a" x1="0" y1="0" x2="1" y2="1"><stop offset="0" stop-color="#12B886"/><stop offset="0.6" stop-color="#2FD6A0"/><stop offset="1.3" stop-color="#2FD6A0"/></linearGradient>
    <radialGradient id="og-glow" cx="0.82" cy="0.15" r="0.6"><stop offset="0" stop-color="#12B886" stop-opacity="0.45"/><stop offset="1" stop-color="#12B886" stop-opacity="0"/></radialGradient>
    <pattern id="og-d" width="30" height="30" patternUnits="userSpaceOnUse"><circle cx="2" cy="2" r="2" fill="#fff" opacity="0.05"/></pattern>
  </defs>
  <rect width="1200" height="630" fill="url(#og-bg)"/>
  <rect width="1200" height="630" fill="url(#og-d)"/>
  <rect width="1200" height="630" fill="url(#og-glow)"/>
  <!-- monogram -->
  <g transform="translate(90 86)">
    <rect width="88" height="88" rx="22" fill="url(#og-a)"/>
    <path d="M26 64 L44 24 L62 64" fill="none" stroke="#0B0B0E" stroke-width="7" stroke-linejoin="round" stroke-linecap="round"/>
    <path d="M34 52 H54" stroke="#0B0B0E" stroke-width="7" stroke-linecap="round"/>
  </g>
  <text x="196" y="146" fill="#F7F7F8" font-family="Georgia, serif" font-size="34" font-weight="700">Abdullah Afzal</text>
  <text x="90" y="330" fill="#F7F7F8" font-family="Georgia, serif" font-size="76" font-weight="700">Traffic into</text>
  <text x="90" y="418" fill="url(#og-a)" font-family="Georgia, serif" font-size="76" font-weight="700">revenue.</text>
  <text x="90" y="486" fill="#9A9AA7" font-family="system-ui, sans-serif" font-size="26">Shopify · Local &amp; Technical SEO · CRO · AI Automation</text>
  <!-- markets -->
  <g font-family="system-ui, sans-serif" font-size="20" fill="#C9C9D2">
    <rect x="90" y="524" width="120" height="44" rx="22" fill="none" stroke="#2A2A33"/><text x="150" y="552" text-anchor="middle">USA</text>
    <rect x="222" y="524" width="140" height="44" rx="22" fill="none" stroke="#2A2A33"/><text x="292" y="552" text-anchor="middle">Canada</text>
    <rect x="374" y="524" width="100" height="44" rx="22" fill="none" stroke="#2A2A33"/><text x="424" y="552" text-anchor="middle">UK</text>
    <rect x="486" y="524" width="160" height="44" rx="22" fill="none" stroke="#2A2A33"/><text x="566" y="552" text-anchor="middle">Australia</text>
  </g>
</svg>
