<svg xmlns="http://www.w3.org/2000/svg" viewBox="0 0 640 360" role="img" aria-label="Article cover: using AI for SEO">
  <defs>
    <linearGradient id="ai-a" x1="0" y1="0" x2="1" y2="1"><stop offset="0" stop-color="#2FD6A0"/><stop offset="1" stop-color="#2FD6A0"/></linearGradient>
    <radialGradient id="ai-g" cx="0.5" cy="0.5" r="0.7"><stop offset="0" stop-color="#12B886" stop-opacity="0.4"/><stop offset="1" stop-color="#12B886" stop-opacity="0"/></radialGradient>
  </defs>
  <rect width="640" height="360" fill="#141418"/>
  <rect width="640" height="360" fill="url(#ai-g)"/>
  <text x="40" y="56" fill="#5CEBC0" font-family="system-ui, sans-serif" font-size="14" letter-spacing="3">AI · AUTOMATION</text>
  <!-- neural node network -->
  <g stroke="#3A3A45" stroke-width="1.5">
    <path d="M170 120 L320 90 L470 130 M170 120 L320 200 L470 130 M170 240 L320 200 L470 250 M320 90 L320 200 M320 200 L320 300 M170 240 L320 300 L470 250"/>
  </g>
  <g>
    <circle cx="170" cy="120" r="14" fill="#12B886"/>
    <circle cx="170" cy="240" r="14" fill="#0E9F76"/>
    <circle cx="320" cy="90" r="16" fill="url(#ai-a)"/>
    <circle cx="320" cy="200" r="20" fill="url(#ai-a)"/>
    <circle cx="320" cy="300" r="14" fill="#2FD6A0"/>
    <circle cx="470" cy="130" r="16" fill="#2FD6A0"/>
    <circle cx="470" cy="250" r="14" fill="#12B886"/>
  </g>
  <text x="40" y="330" fill="#9A9AA7" font-family="system-ui, sans-serif" font-size="14">Human-in-the-loop, always</text>
</svg>
