<svg xmlns="http://www.w3.org/2000/svg" viewBox="0 0 640 360" role="img" aria-label="Article cover: Google Business Profile checklist and local map pack">
  <defs>
    <linearGradient id="gbp-a" x1="0" y1="0" x2="1" y2="1"><stop offset="0" stop-color="#2FD6A0"/><stop offset="1" stop-color="#2FD6A0"/></linearGradient>
    <radialGradient id="gbp-g" cx="0.8" cy="0.3" r="0.8"><stop offset="0" stop-color="#12B886" stop-opacity="0.35"/><stop offset="1" stop-color="#12B886" stop-opacity="0"/></radialGradient>
  </defs>
  <rect width="640" height="360" fill="#141418"/>
  <rect width="640" height="360" fill="url(#gbp-g)"/>
  <!-- faint map grid -->
  <g stroke="#2A2A33" stroke-width="1">
    <path d="M0 120 H640 M0 240 H640 M160 0 V360 M320 0 V360 M480 0 V360"/>
  </g>
  <path d="M90 300 Q220 210 330 260 T560 150" stroke="#2A2A33" stroke-width="6" fill="none"/>
  <text x="40" y="56" fill="#5CEBC0" font-family="system-ui, sans-serif" font-size="14" letter-spacing="3">LOCAL SEO</text>
  <!-- map pin -->
  <g transform="translate(430 150)">
    <path d="M0 -60 C40 -60 60 -30 60 4 C60 46 0 96 0 96 C0 96 -60 46 -60 4 C-60 -30 -40 -60 0 -60 Z" fill="url(#gbp-a)"/>
    <circle cx="0" cy="0" r="22" fill="#141418"/>
  </g>
  <!-- checklist card -->
  <g transform="translate(48 120)" font-family="system-ui, sans-serif">
    <rect width="240" height="180" rx="14" fill="#1E1E24" stroke="#2A2A33"/>
    <g>
      <circle cx="30" cy="42" r="11" fill="#2FD6A0"/><path d="M25 42 l4 4 l7 -8" stroke="#141418" stroke-width="2.5" fill="none" stroke-linecap="round"/>
      <rect x="52" y="36" width="150" height="11" rx="5" fill="#3A3A45"/>
      <circle cx="30" cy="90" r="11" fill="#2FD6A0"/><path d="M25 90 l4 4 l7 -8" stroke="#141418" stroke-width="2.5" fill="none" stroke-linecap="round"/>
      <rect x="52" y="84" width="120" height="11" rx="5" fill="#3A3A45"/>
      <circle cx="30" cy="138" r="11" fill="none" stroke="#4A4A55" stroke-width="2"/>
      <rect x="52" y="132" width="140" height="11" rx="5" fill="#2A2A33"/>
    </g>
  </g>
</svg>
